<svg width="657" height="466" viewBox="0 0 657 466" fill="none" xmlns="http://www.w3.org/2000/svg">
<g filter="url(#filter0_d_228_4)">
<path d="M591.5 9.5H65.5C51.1406 9.5 39.5 21.1406 39.5 35.5V368.5C39.5 382.859 51.1406 394.5 65.5 394.5H591.5C605.859 394.5 617.5 382.859 617.5 368.5V35.5C617.5 21.1406 605.859 9.5 591.5 9.5Z" fill="#777777"/>
<path d="M590.73 11.5H66.5C52.6929 11.5 41.5 22.6929 41.5 36.5V368.365C41.5 382.172 52.6929 393.365 66.5 393.365H590.73C604.537 393.365 615.73 382.172 615.73 368.365V36.5C615.73 22.6929 604.537 11.5 590.73 11.5Z" fill="url(#paint0_linear_228_4)"/>
<path opacity="0.1" d="M559.992 25.8032H98.5293C95.7679 25.8032 93.5293 28.0418 93.5293 30.8032V374.559C93.5293 377.321 95.7679 379.559 98.5293 379.559H559.992C562.754 379.559 564.992 377.321 564.992 374.559V30.8032C564.992 28.0418 562.754 25.8032 559.992 25.8032Z" fill="#2A2A2A"/>
<path d="M588.529 28.8032H68.5293C64.111 28.8032 60.5293 32.3849 60.5293 36.8032V366.803C60.5293 371.221 64.111 374.803 68.5293 374.803H588.529C592.948 374.803 596.529 371.221 596.529 366.803V36.8032C596.529 32.3849 592.948 28.8032 588.529 28.8032Z" fill="#E8EAF6"/>
<path d="M165 186C173.837 186 181 178.837 181 170C181 161.163 173.837 154 165 154C156.163 154 149 161.163 149 170C149 178.837 156.163 186 165 186Z" fill="#F98E5D"/>
<path opacity="0.25" d="M518 144H436C434.343 144 433 145.343 433 147C433 148.657 434.343 150 436 150H518C519.657 150 521 148.657 521 147C521 145.343 519.657 144 518 144Z" fill="#242A45"/>
<path opacity="0.25" d="M518 164H436C434.343 164 433 165.343 433 167C433 168.657 434.343 170 436 170H518C519.657 170 521 168.657 521 167C521 165.343 519.657 164 518 164Z" fill="#242A45"/>
<path opacity="0.25" d="M518 184H436C434.343 184 433 185.343 433 187C433 188.657 434.343 190 436 190H518C519.657 190 521 188.657 521 187C521 185.343 519.657 184 518 184Z" fill="#242A45"/>
<path opacity="0.25" d="M518 204H436C434.343 204 433 205.343 433 207C433 208.657 434.343 210 436 210H518C519.657 210 521 208.657 521 207C521 205.343 519.657 204 518 204Z" fill="#242A45"/>
<path opacity="0.25" d="M518 238H436C434.343 238 433 239.343 433 241C433 242.657 434.343 244 436 244H518C519.657 244 521 242.657 521 241C521 239.343 519.657 238 518 238Z" fill="#242A45"/>
<path opacity="0.25" d="M518 258H436C434.343 258 433 259.343 433 261C433 262.657 434.343 264 436 264H518C519.657 264 521 262.657 521 261C521 259.343 519.657 258 518 258Z" fill="#242A45"/>
<path opacity="0.25" d="M518 278H436C434.343 278 433 279.343 433 281C433 282.657 434.343 284 436 284H518C519.657 284 521 282.657 521 281C521 279.343 519.657 278 518 278Z" fill="#242A45"/>
<path opacity="0.25" d="M257 174H199C197.343 174 196 175.343 196 177C196 178.657 197.343 180 199 180H257C258.657 180 260 178.657 260 177C260 175.343 258.657 174 257 174Z" fill="#242A45"/>
<path d="M165 242C173.837 242 181 234.837 181 226C181 217.163 173.837 210 165 210C156.163 210 149 217.163 149 226C149 234.837 156.163 242 165 242Z" fill="#6AC6D6"/>
<path opacity="0.5" d="M313 216H199C197.343 216 196 217.343 196 219C196 220.657 197.343 222 199 222H313C314.657 222 316 220.657 316 219C316 217.343 314.657 216 313 216Z" fill="#242A45"/>
<path opacity="0.25" d="M257 230H199C197.343 230 196 231.343 196 233C196 234.657 197.343 236 199 236H257C258.657 236 260 234.657 260 233C260 231.343 258.657 230 257 230Z" fill="#242A45"/>
<path d="M165 298C173.837 298 181 290.837 181 282C181 273.163 173.837 266 165 266C156.163 266 149 273.163 149 282C149 290.837 156.163 298 165 298Z" fill="#A47ED4"/>
<path opacity="0.5" d="M313 272H199C197.343 272 196 273.343 196 275C196 276.657 197.343 278 199 278H313C314.657 278 316 276.657 316 275C316 273.343 314.657 272 313 272Z" fill="#242A45"/>
<path opacity="0.25" d="M257 286H199C197.343 286 196 287.343 196 289C196 290.657 197.343 292 199 292H257C258.657 292 260 290.657 260 289C260 287.343 258.657 286 257 286Z" fill="#242A45"/>
<path d="M165 354C173.837 354 181 346.837 181 338C181 329.163 173.837 322 165 322C156.163 322 149 329.163 149 338C149 346.837 156.163 354 165 354Z" fill="#EC7878"/>
<path opacity="0.5" d="M313 328H199C197.343 328 196 329.343 196 331C196 332.657 197.343 334 199 334H313C314.657 334 316 332.657 316 331C316 329.343 314.657 328 313 328Z" fill="#242A45"/>
<path opacity="0.25" d="M257 342H199C197.343 342 196 343.343 196 345C196 346.657 197.343 348 199 348H257C258.657 348 260 346.657 260 345C260 343.343 258.657 342 257 342Z" fill="#242A45"/>
</g>
<defs>
<filter id="filter0_d_228_4" x="35.5" y="7.5" width="586" height="393" filterUnits="userSpaceOnUse" color-interpolation-filters="sRGB">
<feFlood flood-opacity="0" result="BackgroundImageFix"/>
<feColorMatrix in="SourceAlpha" type="matrix" values="0 0 0 0 0 0 0 0 0 0 0 0 0 0 0 0 0 0 127 0" result="hardAlpha"/>
<feOffset dy="2"/>
<feGaussianBlur stdDeviation="2"/>
<feColorMatrix type="matrix" values="0 0 0 0 0 0 0 0 0 0 0 0 0 0 0 0 0 0 0.5 0"/>
<feBlend mode="normal" in2="BackgroundImageFix" result="effect1_dropShadow_228_4"/>
<feBlend mode="normal" in="SourceGraphic" in2="effect1_dropShadow_228_4" result="shape"/>
</filter>
<linearGradient id="paint0_linear_228_4" x1="610.062" y1="285.202" x2="150.849" y2="-20.1735" gradientUnits="userSpaceOnUse">
<stop stop-color="#151515"/>
<stop offset="1" stop-color="#3D3D3D"/>
</linearGradient>
</defs>
</svg>
